<?xml version="1.0" encoding="UTF-8"?><svg id="Layer_1" xmlns="http://www.w3.org/2000/svg" viewBox="0 0 170.64 198.34"><defs><style>.cls-1{fill:#f1678b;stroke-width:0px;}</style></defs><path class="cls-1" d="m52.35,60.9c-.23-1.37.03-2.64.78-3.81l13.04-.93.2,1.07-2.05,2.88-1.37,7.28c1.82,23.18-1.74,92.39-9.46,96.2h-5c-2.28.39-7.25-59.16-8.59-65.25-.16-.88,1.97-1.89,6.4-3.03.72-.13,1.63.8,2.73,2.78l3.46,29.49c3.61-.75,2.29-36.86-.58-58.15l.44-8.54Z"/><path class="cls-1" d="m122.65,142.71c-3.18-10.36-5.56-21.63-7.14-33.81-1.89-20.05-2.17-38.74-.82-56.09.58-1.97-3.94-6.68-13.55-14.12-1.14.4-3.46,2.74-6.97,7.02l.43.09c-1.84,23.59-4.07,39.99-6.7,49.21l-3.44,8.99-.77-.25-.51-1.53c-4.54-15.01-6.69-27.09-6.44-36.24-1.66-.64-5.67-.71-11.95-.21.02,1.09.11,2.18.2,3.27.18,2.44.36,4.89.5,7.34.55,9.65-.28,19.3.01,28.95.05,1.71.09,3.4.02,5.1l1.89-6.72.48-3.23c2.82,12.69,4.87,23.55,6.13,32.56l13.48,3.17c2.85-4.8,5.42-11.18,7.7-19.14,2.85-10.12,4.79-20.19,5.8-30.18l.32-1.26.41.18c-.45,1.75-.39,5.88.16,12.4-.21,11.24,1.96,25.86,6.51,43.86,5.3,15.43,11.42,25.13,18.38,29.1l11.46-2.84c-5.18-5.25-11-12.85-15.59-25.6Z"/><path class="cls-1" d="m99.95,197.87c.69.17.55-.7.68-.83-1.19.02-.68,1.05-.68.83Z"/><polygon class="cls-1" points="88.2 198.08 88.46 197.77 86.64 198.34 88.2 198.08"/><path class="cls-1" d="m77.58,196.2c.73,1.58,3.87.53,5.68,1.33l.26.37,1.05-.99c-2.33-.19-5.45-.02-6.99-.72Z"/><path class="cls-1" d="m72.67,191.99c.22.61-1.3.2,1.24.46-.11-.09-.14-.13-.2-.19-.22-.04-.53-.1-1.04-.27Z"/><path class="cls-1" d="m73.71,192.26c1.1.19-.61-.61,0,0h0Z"/><path class="cls-1" d="m68.66,191.37l1.54-.14c-.22-.39-1.45-.77-.93-.88-1.5-.11-1.29.27-.61,1.02Z"/><path class="cls-1" d="m67.07,192.01h.78c-.09-.17-.27-.27-.78,0Z"/><path class="cls-1" d="m69.52,191.98c-.56.01-1.12.04-1.67.03.15.28.05.74.75.04-.23.38.18.06.92-.07Z"/><path class="cls-1" d="m70.35,192.41c.72.5,1.72.94.17,1.07,2.79.48,2.6-.6-.17-1.07Z"/><path class="cls-1" d="m76.75,197.54l1.03.62,1.05-.29c-.52.14-2.06-.79-2.08-.33Z"/><path class="cls-1" d="m60.27,188.11c-.18.26.2.91.18,1.31h1.13c-.46-.37-1.39-.87-1.31-1.31Z"/><path class="cls-1" d="m60.45,189.43c-.57.01-1.12,0-1.68-.03,1.32.56,1.67.36,1.68.03Z"/><path class="cls-1" d="m66.4,193.47c.96-.11,1.91-.22,2.87-.38-1.13.12-2.24.18-3.37.25l.5.12Z"/><polygon class="cls-1" points="54.68 185.97 55.75 185.65 53.9 186.03 54.68 185.97"/><path class="cls-1" d="m51.02,184.51c.82-.25-.38-1.28.39-1.31-.99-.36-2.01-.3-2.96-.25.9.15,1.69.6,2.57,1.55Z"/><path class="cls-1" d="m46.95,182.88c.45.08.95.09,1.5.07-.47-.09-.95-.14-1.5-.07Z"/><path class="cls-1" d="m56.27,188.33c-.05-.22-.11-.73-.85-1.25.09.34.17.69.27,1.03.18.07.38.15.59.23Z"/><path class="cls-1" d="m55.69,188.14v-.03c-.64-.26-1.06-.47-1.24-.56.16.07.53.25,1.24.59Z"/><path class="cls-1" d="m56.41,188.39c-.05-.02-.09-.04-.15-.06.03.1.05.14.15.06Z"/><path class="cls-1" d="m62.51,191.55c-1.04.17-3.12.05-1.49,1.33.83-.35-.09-1.08,1.49-1.33Z"/><path class="cls-1" d="m56.78,189.66l1.54.77c.04-.22-.14-.64.38-.7l-1.92-.07Z"/><polygon class="cls-1" points="55.89 189.62 56.78 189.66 56.2 189.37 55.89 189.62"/><path class="cls-1" d="m49.11,184.88c-.81.01-1.56-.27-2.35-.67.74.63,1.63,1.1,2.47,1.52.24-.18.82-.44-.12-.86Z"/><path class="cls-1" d="m52.23,186.6c-.05,0-.12-.01-.17-.02.06.1.13.16.17.02Z"/><path class="cls-1" d="m39.3,179.67c0,.07.02.14.02.21.04-.03.07-.07.11-.1l-.13-.11Z"/><path class="cls-1" d="m49.3,185.95c.58.46,1.06.46,1.54.4-.52-.16-1.06-.35-1.62-.61-.11.08-.15.15.08.21Z"/><path class="cls-1" d="m44.64,182.07c.23.33.53.67.85,1-.19-.41-.62-1.13-.85-1Z"/><path class="cls-1" d="m51.93,186.27s.08,0,.11,0c-.14-.26-.15-.17-.11,0Z"/><path class="cls-1" d="m51.93,186.27c-.4-.02-.74.04-1.08.08.42.14.84.21,1.21.23-.06-.09-.1-.21-.13-.31Z"/><path class="cls-1" d="m33.84,182.47c.61-.54,2.63.04,3.54,1.75,1.79.41,2.2-2.33,1.94-4.34-.24.25-.41.52-2.03-.09.2.69,2.44,3.02.87,2.78-2.06-1.01-1.34-1.33-1.97-2.31.08.67-.71.54-1.6.4-.88-.14-1.81-.35-2.08.39l.94.46.98.4c-.1.2-.93.05-.59.55Z"/><path class="cls-1" d="m41.9,181.67l.62.28c-.58-.53-.88-1.1-1.38-2.15-1.16-.26-1.48-.21-1.7-.02.85.7,1.81,1.27,2.72,1.91l-.26-.02Z"/><path class="cls-1" d="m45.15,183.48c-.88.5-2.53.01-2.1,1.31,1.83.94,1.61.07,2.85.32-2.96-1.39,1.04.03-.77-1.53.63.18,1.14.41,1.63.64-.46-.37-.88-.76-1.26-1.15.02.03.03.06.04.08h.01s0,.02,0,.02c.07.16.08.24-.03.11-.01,0-.05-.01-.07-.02-.08.09-.18.16-.29.21-.73-.6-.02-.27.29-.21.03-.03.07-.05.1-.09v-.02c-1.02-.37-2.04-.74-3.01-1.21.26.23.57.46.98.72.43.24.96.49,1.65.82Z"/><path class="cls-1" d="m58.73,194.09c-.08-.1-.05-.16-.04-.22-.24.03-.35.08.04.22Z"/><path class="cls-1" d="m57.57,193.14c.28-.04.57-.27,1.31.06.58.46-.13.39-.19.67.54-.07,1.81-.08.5-.93l-.27.04c-1.2-.72-2.45-2.34-2.19-2.37.1.86.24,1.5.84,2.53Z"/><path class="cls-1" d="m50.87,188.71c-.91-.23-1.79-.53-2.69-.8l.97,1.29.12-.44c1.36.85,1.29.17,1.6-.06Z"/><polygon class="cls-1" points="39.31 179.14 40.11 178.6 38.14 178.75 39.31 179.14"/><polygon class="cls-1" points="36.49 177.19 37.08 176.65 36.1 176.44 36.49 177.19"/><path class="cls-1" d="m72.75,3.74l.87-.34c-.42.13-.68.24-.87.34Z"/><path class="cls-1" d="m66.22,5l-.06.42c.24-.29.33-.47.06-.42Z"/><path class="cls-1" d="m11.87,98.83c.85-1.07,2.22-2.16,1.32-2.16l-.92.22c0,.83-.14,1.44-.4,1.94Z"/><path class="cls-1" d="m29.7,40.67c-.14.05-.28.09-.42.14.07.42.14.81.21,1.16.06-.39.14-.83.21-1.3Z"/><path class="cls-1" d="m27.29,37.85c.46-.35.96-.66,1.44-.99-.38.18-.88.47-1.44.99Z"/><path class="cls-1" d="m107.21,3.21l1.14-.74c-1.61-.22-.96.32-1.14.74Z"/><path class="cls-1" d="m16.21,148.82c-.06-1.04-.14-1.85-.33-2.51-.11,1.3-.48,2.48.33,2.51Z"/><path class="cls-1" d="m71.88,13.21c.43-.25.6-.45.56-.64-.46.22-.69.45-.56.64Z"/><path class="cls-1" d="m14.99,143.58c-.03.19-.04.37-.05.56.37.65.71,1.3.94,2.16.08-.96-.05-1.96-.89-2.72Z"/><path class="cls-1" d="m165.06,98.06c-.07.07-.14.16-.22.22.09.08.15-.04.22-.22Z"/><path class="cls-1" d="m136.84,120.77c.21-.27.62-.63.98-.99-.22.13-.52.42-.98.99Z"/><path class="cls-1" d="m27.15,167.21c.49.53.15.03,0,0h0Z"/><path class="cls-1" d="m26.82,172.18c-.18-.06-.36-.07-.52.05.2-.09.37-.1.52-.05Z"/><path class="cls-1" d="m7.88,137.54s0-.04-.01-.07c-.11.26-.09.22.01.07Z"/><path class="cls-1" d="m27.51,168.32c-.08-.28-.21-.59-.37-.89.04.16.15.43.37.89Z"/><path class="cls-1" d="m27.74,167.94c.13.22.23.39.32.55.17-.02.19-.14-.32-.55Z"/><path class="cls-1" d="m26.49,166.45c.27.32.47.65.65.98-.04-.15-.04-.23,0-.21-.14-.16-.33-.39-.66-.76Z"/><path class="cls-1" d="m155.62,33.97c.01.06.03.12.04.19.78.43.52.18-.04-.19Z"/><path class="cls-1" d="m7.5,76.99s.01.06.01.1c.02-.03.05-.07.07-.1h-.08Z"/><path class="cls-1" d="m7.8,74.03c.63,1.52.29,2.14-.22,2.96l2.69-.16c-.83-.92-1.65-1.85-2.47-2.8Z"/><path class="cls-1" d="m87.97,2.71l-2.03-.79C88.41.64,90.19,1.13,88.28,0c-.16,1.36-2.13,1.4-4.15,1.49-2.01.09-4.06.24-4.14,1.61l-1.41-.5c.4,0,.45-.16.85-.15-2.8-1.12-1.87,2.05-5.33,2.03-1.23-.04-2.14-.32-1.35-.75-.88.36-1.74.71-2.6,1.11-.79.1-.7-.4.1-.5-1.37.32-2.74.71-4.09,1.15v-.09c-.47.57-1.59,1.58-2.12,2.07-1.13-.02.41-.45.05-.68-.67.46-1.33.91-1.97,1.41-1.15-.3.41-1.68,2.03-2.09-1.48-.93-1.94-.6-2.59,0-.67.6-1.55,1.39-4.06,1.75.63-.43,1.26-.87,1.93-1.28-2-.81-3.43.48-6.17.97.4.06,1.84-.08,2.93.08,1.08.14,1.77.51.8,1.4-.73.15-1.63.53-2.53,1.69-.5-.82-1.55.07-2.9,1.05l-.62-1.13c-1.31,1.34-.81,1.79-1.32,2.88-1.67,1.08-2.58.58-3.49.21-2.61,1.88,2.69-.16-.06,2.42-2.32,1.31-3.36,2.95-5.01,5.63-1.58.95-.33-.78-1.04-.59-.14.62-.28,1.22-.4,1.85-.28.26-.42-.05-.49-.2-.63,1.25.83.98-.34,2.73.32.69-.78,1.1-2.05,1.73-1.28.61-2.62,1.56-2.86,3.04-.69.25-.4-.74-.9-.92-.76,1.7-1.1,2.39-1.36,3.06-.23.69-.38,1.34-.7,2.92l-2.17,1.44c.94-.43,1.28-.01,1.33.78.04.78-.19,1.94-.36,3.04.74-.24,1.36-.45,1.74-.62l-1.24,2.96c-.39.19-.57-.32-.71-1.05-.04.24-.07.46-.08.65-1.03.65-1.31-.24-1.43-1.32.43-.17.87-.34,1.3-.49-.19-1.09-.46-2.21-1.16-2.52,0,.26-.13.67-.32,1.07-.05-.29-.13-.51-.29-.51-.17.01-.14.45-.17,1.08l-1.59-.22.36.47c-1.04,1-2.15,1.97-3.14,3.02-.21,1.69-.21,3.36-.4,5.14-.2,1.78-.45,3.74-1.36,5.92-.35-1.52-1.38-1.04-2.43-1.69.9-.26,1.22-1.13,1.52-2.2.29-1.07.54-2.35,1.34-3.33-.81,1.03-1.16.49-1.16.1-.46,1.47-.79,3-1.19,4.47-.84-.58-1.13.46-2.07,1.28,1.11.09.96.96.6,2.08-.38,1.11-1.06,2.44-1.18,3.38-.66-.19-1.08-.88.06-2.79-2.43,1.54.66,3.83-1.46,5.44.2-.5.41-.72.19-1.06.04,1.4-1.63,4-1.88,3.11l.2-.5c-.42.79-.9,1.82-1.37,2.92-.42,1.12-.82,2.33-1.13,3.46-.3,1.14-.54,2.2-.56,3.05-.01.86.13,1.49.49,1.75-.22-.04-1.79-1.11-2.05-1.43,1.15,2.67,2.24,5.22,3.52,7.73-1.24-.96-5.18.14-5.15-2.96-.45.76-.96,1.72-.95,3.6.36-.51,2.42-.82,2.34-.03-2.14,1.66-1.27,1.2-3.28,3.47.5-.78,2.5.73,2.13,2.03-.29-.29-2.23-.41-2.35-.96l1.44,3.83c-.21-.91-1.83-.55-2.62.08.47-.27-.6,2.92-.53,3.87l.77-1.34c-1,3.78,2.4,4.27,1.84,7.97-.41-.5-2.69-1.51-3.22.41.52.52,1.76,1.66,2.97,3.06,1.25,1.41,2.45,3.06,2.77,4.7l-.7.58c.17.84.42,1.69.65,2.52-.42-.4-.96-.99-1.55-1.69-.56-.7-1.16-1.51-1.75-2.36-1.17-1.7-2.33-3.57-2.89-4.89-.68,1.4-.82.33-.94,2.52-.67.72-.84-1.28-.83-1.93l-.79,5.11c.7-.07.91.92,1.21,1.92.28,1,.54,1.98,1.1,1.9-.2-.92-.43-1.85-.62-2.79l-.49-2.81c.68-.06,1.57.81,2.23,2.11.63,1.3,1.21,3.04,1.03,4.8-.56.89-2.38-.72-2.83-.67.46.49.77,3.42.49,3.76-.26-.51-.48-1.02-.71-1.53-.55,2.03,1.81,3.25.58,5.69-.04.83-1.58,2.59-.78,2.69,1.45-1.48,6.18-1.94,7.38-1.15-.04.14-.35,1.19-.73,2.35-.34,1.15-.74,2.4-1.08,2.9-1.06,1.47-3.05-1.71-3.97-.48.37.02.9.72,1.07,1.01-.22.9-1.17-.24-.81,1.63,1.4.15.42,3.82,1.27.74.66,1.76-.03,1.98.39,4.11.75-.81,3.31,1.38,4.01,3.04-.36-.03-.72.45-.87.69.68,3.62.59,5.71,1.61,9.04-.21.4-.06,2.13-.84,1.63.39.41.97.7,1.34,1.71-.42,2.38-.96-2.23-1.77-.25.76-.11,1.99,2.29,3.02,3.53.97-.9-1.1-3.35-2.01-4.69.8-.27,1.83.08,2.88.87,1.1.77,2.25,1.96,3.25,3.43,1.52,2.35-.5,1.54-.08,1.88.92,2.48,2.14,3.13,3.14,3.71,1.01.59,1.82,1.12,2.4,3.23-.05,2.01-1.79,1.18-2.26,1.9-.76-.89-1.09-1.74-1.28-2.53-.18-.81-.27-1.55-.64-2.23l.44,1.94c-.65-.48-1.61-1.74-1.72-2.62-.05.43.18,1.16.57,2.07.2.45.43.96.69,1.49.29.51.61,1.06.93,1.63.65,1.13,1.34,2.34,2.06,3.45.71,1.12,1.27,2.26,1.76,3.2.75.37,1.82,1.14,1.79.4l-.92-.94c-.03-1.45,2.45,1.18,1.76-.35.78.48,1.61.97,2.44,1.54.85.56,1.63,1.27,2.24,2.32l-.59,1.18c.22-.29-.51-1.67-1.23-1.92.54.19.83,1.15,1.26,2.05.46.85,1.05,1.63,2,1.43l-.59-1.77c.82.37,1.83.68,2.76,1.1.92.44,1.89.87,2.53,1.69.08-1.52-.46-.21-.62-2.19-.32,2.2-3.65-3.63-3.52-.91.08-2.16-1.27-2.37-1.51-4.71-.26.3-.15,1.02-1.1-.39-.14.02-.36-.03-.5-.07-.02-.05-.03-.07-.05-.11,0,.04.01.07.02.1-.09-.02-.11-.02,0,.04.11.43.15.83.08,1.07-1.26-.06-2.94-2.27-3.9-2.75-.43-.97.62.09.65-.63l-1.38-.75c.65-.64-.29-3.08,1.49-1.4-.39-.6-.79-1.19-1.17-1.8-.21-1.36-.94-2.92-1.79-3.67-.29-.99-2.06-1.81-1.03-1.35-.69-.91-1.39-1.83-2-2.8l.19-.12c-.32-.78-.74-1.52-1.2-2.27-.43-.76-.87-1.54-1.29-2.35-.87-1.6-1.39-3.43-1.25-5.5-.53-1.03-1.11-2.1-1.39-4.01l.67-.55c-.59-1.37-.24-4.42-1.11-4.89,1.73-1.92-.75-7.03-.55-9.67h-1.02c-.15-1.78-.47-3.46-1.03-5.67l-.89.17c-.39-.95-.25-2.21-.04-3.6.22-1.39.62-2.91.6-4.44.34.22.23.99,0,1.53,1.07-1.8.69-3.71.45-5.62-.15-.95-.31-1.9-.33-2.82,0-.46.01-.9.1-1.33.1-.43.26-.84.5-1.23-.22-.86-.03-1.44.26-1.99,0,.08,0,.15.02.21.02-.08.04-.21.05-.34.2-.34.42-.69.62-1.07-.26.31-.48.62-.6.89.07-.63.06-1.61-.02-2.58l1.02-.25c0-.08.01-.14.01-.22.51-.85-.32-.81-1.12-.43-.07-.5-.18-.96-.35-1.34,1.66-.48-.08-2.57,1.73-3.28-.67-.79.46-4.78-1.08-5.69.22.02.39-.23.29.28.4-1.01.9-1.98.69-3.03l1.3-.12-.96-2.7c1.1-1.17,1.67-1.59,2.2.03-.39-3.66.32-2.76-.14-5.98l.7.39c.27-1-.11-2.91.72-3.27,1.13-.82,2.14-3.49,3.56-6.48.34-.75.7-1.53,1.06-2.32.38-.77.81-1.54,1.24-2.29.88-1.49,1.72-2.94,2.78-4.04-2.61-.12,2.26-1.89.79-2.97.65-.03,1.32-.58,1.27.48.48-1.45,1.27-2.29,1.89-3.09.62-.8,1.06-1.57.97-2.86.65.01.34.98.78.9.03-.27.1-1.07.54-1.15.43-.08.16.62.11,1.15,1.56-2.59.4-3.77-.8-4.87,1.52-.87,1.87-1.56,1.68-3.11.76-.13,1.73-.54.75,1.12.69-.85,4.61-4.76,3.68-5.65.47-.05,1.06-1.09,1.13-1.4,1.65-1.79,1.83-1.92,3.36-3.76l-.61.34c-.49-1.72,1.12-1.68,2.31-3.21l.08.15c1.91-1.23,2.16-1.64,2.42-2.06.25-.41.52-.82,2.53-1.83l-.82-.54c-.56-.9.37-1.34,1.6-1.81,1.24-.46,2.76-.94,3.5-2.01l-1.05.13c.32-.7,1.51-.76,2.76-.66,1.24.09,2.53.35,3.14.09.33,0-.21.48-.45.82,3.47-.85-.36-1.31,1.64-2.93.75.34.39,1.76,1.88,1.03.49.03,1.24-1.04,2.29-2.05,1.03-1.03,2.39-1.96,3.67-1.72-.64-.33-1.31-.64-.33-1.4.83-.39,2.15-.29,3.38-.27,1.23,0,2.39-.09,3.06-1.05.25.1.37.22.4.35,1.29-.69,4.45-1.32,5.27-2.26.8,1.6,2.98,1.04,5.08.57,2.09-.49,4.06-.93,4.04.59l4.56-.1-.13.31c2.9.28,3.94-.39,5-1.08.66.24.16.5.09.66,4.2.87,4.57.77,8.27-.37l.25,1.03c.51-.25,1.97.34,3.81.92,1.83.61,4,1.25,6.1,1.14-.06.1-.19.27-.53.33,2.35-.06,4.82,1.29,6.87,2.4,1.04.53,1.97,1.04,2.86,1.18.87.17,1.66.06,2.4-.62,1.04.09,2.05.29,3.09.46-3.42-1.96,1.21-1.15,0-2.4,1.57.48,3.12,2.86,1.35,2.09l-.18-.3c-.74.67.25,1.4,1.33,2.1,1.07.7,2.2,1.44,1.81,1.96,3.21,2,6,4.55,8.5,7.28,2.5,2.73,4.71,5.64,6.92,8.47l.62-1.56c.52.67,1.01,1.36,1.51,2.05.13.75-.37,1.39-1.42-.06-.07,1.24,2.37,1.98,2.67,1.84,1.59,3.21-2.18-.11-1.58.79l.94,1.11-.05-.37c1.17.61,1.77.33,2.9,2.17.5,1.3-.38,1.07-.14,1.55-.09.05-.03.23.39.71.51.9.99,1.81,1.45,2.72l.39-1.65c1.19.92,1.37,2.62,1.83.71-.36,1.43.82,4.08,1.79,6.68.26.64.47,1.29.68,1.91.2.62.43,1.18.56,1.72.27,1.06.46,1.86.38,2.21,1.21,1.68,1.57,3.61,1.66,5.99.19-.61,1.45-1.11,1.47,1.01-2.67-.58-.98,3.87-3.01,5.45.33-.35.5-.17.61.27.09.44.1,1.13.12,1.81.07,1.34.08,2.61,1.13,1.55-.42,1.69-1.01,0-1.79,1.2.15,1.03.02,2.09-.15,3.18-.25,1.08-.55,2.18-.98,3.28-.79,2.22-1.89,4.43-2.58,6.82.3.2,1.11-.4,1.2.8-.89.61-1.74,1.22-2.64,1.77-.25.94,1.49,1.68-.41,2.79.38-.1.96-.25.75.4-1.47,2.05-2.84,4.15-4.16,6.31-1.36,2.13-2.72,4.3-4.22,6.38-3.01,4.15-6.62,8.02-11.42,10.33,1.47-.45.85.23.1.97.61-.35.58.64,1.01.9-1.36.66-2.71,1.3-4.08,1.9.29,1.53-3.45,3.05-3.02,4.3.31-.34.62-.69.92-1.04-.48,2.33,4.1.91,5.15,2.52.25-1.34,1.72-1.76,3.24-2.43,1.53-.65,3.13-1.56,3.52-3.65.82-.27-.03.91.57.93.05-1.22.7-2.07,2.33-3.27v.3c1.86-2.1,3.28-3.52,4.83-4.97,1.52-1.47,3.18-2.97,5.25-5.46l-1.05-.16c.89-1.05,1.31-1.11,1.86-1.52-.29-2.09-2.26,3.12-2.74,1.03,1.31-.17,2.7-2.15,3.96-4.13,1.28-1.97,2.4-3.94,3.68-3.98.98-1.91-1.25.05-.28-1.84l.79-.24-.44-.82c.7-1.2,1.67-1.55,2.15-1.39-.2.29-.28.95-.4,1.31,1.45-1.39,1.85-4.89,2.26-5.4-.34.62-.74,1.21-1.1,1.81.87-2.83,1.97-5.91,2.73-9.08.76-3.16,1.25-6.38.92-9.27l-.49.38c-.45-4.33.86-3.4.45-8.16l.11.17c-.47-.94-.73-2.18-.82-3.47.63,1.16.81-2.36,1.53-.84-.71-2.33-1.01-2.87-1.32-3.21-.31-.33-.73-.46-1.84-1.79l.58-.85c-.88-.87-1.26-.87-2.04-3.04.56.82.73.4.94-.03.19-.41.44-.83,1.13.11.06-2.65-.98-4.35-1.86-5.62-.88-1.29-1.58-2.22-1.02-3.79-1.44-.56-1.19.53-.75,1.64.44,1.11,1.06,2.28.61,1.78-.2,1.22-2.12-1.07-2.64-2.48-.66-1.35,1.13-3.6-1.03-6.97.2.34.35.28.55.62-.35-1.55-2.16-2.05-2.49-4.01-1.59-.11-1.31-1.94-2.75-1.23.8.88,1.59,1.77,2.37,2.68-1.51-1.44-4.06-1.84-5.38-4.96.41,0,1.34.51,1.95.91-.23-1.05-1.39-1.28-1.65-2.36,1.44-.78,2.97,3.17,5.19,4.24-.07-1.27-3.38-2.63-1.35-2.79-2.68.08-2.17-3.26-5.2-4.21l.83-.49c-.4-.22-1.31-.58-1.81-1.18l1.86.24c-2.21-.93-2.18-3.76-4.12-4.86,3.15,3.13-.11,1.51.69,3.31-2.31-1.48-2.44-2.42-2.57-3.55-.14-1.1-.26-2.41-2.81-4.23.75.44,2.03,2.48.75,1.95-.76-.91-1.73-2.17-2.01-3.01-3.42-2.34-.08,1.15-1.84.56-.42-1.76-1.9-.81-3.55-1.48l.52-.81c-1.78-1.54-2.35-1.23-2.8-.95-.46.28-.86.61-2.47-.71l2.19-.32-2.08-.75.91-.75c-1.24-.24-2.03-.4-2.72-.74-.7-.34-1.34-.78-2.36-1.36.22.85-.96,1.46-2.83.77-1.09-1.01,1.05-.59-1.69-1.46.8-.35,1.76-.8,2.62.47.24-.26.82-.31,1.07-.55-1.17-1.18-3.53-1.52-4.54-1.81.38.16.82.36,1.02.56-1.49,0-2.94-.05-4.4.04-.53-.52.04-.67.62-.8-.85-.12-1.53.13-2.74-.09.5-.69.62-1.49,2.45-1.37-1.38-.1-2.75-.13-4.11-.14-.18-.41-1.81-1.35-1.24-1.53-2.12-.92-5.61.5-8.37-.47-.17.13-.48.24-1.1.28-2.65-.49-4.98-1.65-8.22-.77l-1.73-1.49c-2.49.2,2.34,1.88-1.79,2.22-2.91.36-1.04-1.23-2.05-1.66-1.48.67-3.97,2.06-6.63.92.89-.26,1.58-.06,2.4-.15Zm-30.92,6.31c.45-.48,1.35-1.58,2-1.27-.18,1.32-.9,1.05-2,1.27Zm-31.38,34.21c-.02-.53.5-1,1.23-1.41-.25.5-.63.98-1.23,1.41Zm-3.68,117.85s-.04-.02-.07-.03c-.29-1.22-.2-.78.07.03Zm.96,2.34c.25.13.36.05.41-.12-.3-.01-.65-.45-.9-1.05-.12.28-.12.67.49,1.16ZM155.09,44.51l-.05-.55c.83.79.45.66.05.55Z"/><path class="cls-1" d="m27.56,38.19c.23-.04.4.03.57.1,0-.28-.15-.4-.57-.1Z"/><path class="cls-1" d="m107,3.34s.06.01.09.02c.06-.05.09-.1.12-.16l-.21.14Z"/><path class="cls-1" d="m2.44,127.46c.08-.58.23-.91.39-1.14-.24,0-.41.27-.39,1.14Z"/><path class="cls-1" d="m32.41,172.45l-1.29-.9c.57.49.61.82.78,1.2.13-.18.15-.62.51-.3Z"/><path class="cls-1" d="m39.85,185.82c.27.03.45.27.72.3l.18-.42c-.9-.54-1.72-.63-.9.12Z"/><path class="cls-1" d="m31.24,175.79c-.23.34-.11.64.18.95.3.29.8.56,1.28.87-.05-.04-.11-.08-.16-.13.5-.32.46-.6.15-.87-.32-.26-.9-.52-1.45-.82Z"/><path class="cls-1" d="m32.92,177.76c.3.2.59.42.83.67.39-.26-.27-.35-.83-.67Z"/><path class="cls-1" d="m25.16,165.72c.13.56,1.03-.35.94.08,1.15-.1-3-2.14-.94-.08Z"/><polygon class="cls-1" points="30.1 178.42 30.47 177.38 29.45 177.51 30.1 178.42"/><path class="cls-1" d="m24.21,171.1c.3.57.66,1.09,1.01,1.62.11-.13.34-.02.59.15-.36-.45-.74-.93-1.03-1.29-.27-.37-.48-.6-.58-.48Z"/><path class="cls-1" d="m25.82,172.87c.39.46.79.88,1.13,1.02-.23-.24-.72-.74-1.13-1.02Z"/><path class="cls-1" d="m28.02,176.81l-.26-.54c-.3-.33-.61-.66-.91-1,.38.52.77,1.03,1.16,1.54Z"/><path class="cls-1" d="m14.02,153.65c-.37-.59-.68-1.2-1.03-1.81-.4-.07-.39.53.02,1.2.39.38.83,1.02,1.01.6Z"/><path class="cls-1" d="m14.26,160.54c-.08-.61.1-.74.24-1.18l-1.14.5.89.67Z"/><path class="cls-1" d="m11.32,155.05c-.44-.04-2.07-2.52-1,0,.41.07,1.55,1.91,1,0Z"/><path class="cls-1" d="m5.51,123.87c.01.18.04.35.06.53l2.02-.24-2.08-.29Z"/><path class="cls-1" d="m1.85,95.44c-.85,2.48,1.15.78.25,2.99.4.66.73-1.8,1.06-1.14-.33-1.6.14-2.35-1.32-1.86Z"/><path class="cls-1" d="m3.17,97.3c.05.26.11.53.21.82-.07-.46-.14-.68-.21-.82Z"/><polygon class="cls-1" points="131.88 123.63 130.44 124.28 131.63 124.18 131.88 123.63"/><path class="cls-1" d="m130.55,126.67l-1.09-.79v1.5c.24-.26.7-.77,1.09-.71Z"/><path class="cls-1" d="m51.47,9.23l.06.34c.41.13.78-.06,1.52-.46l-1.58.12Z"/><polygon class="cls-1" points="74.74 2.21 74.34 2.23 75.21 3.31 74.74 2.21"/><path class="cls-1" d="m93.7.32c-.76-.07-1.67.15-2.43.09,1.67-.17,2.59,1.38,2.43-.09Z"/></svg>